<svg xmlns="http://www.w3.org/2000/svg" viewBox="0 0 800 600">  <defs>
    <linearGradient id="bgGrad" x1="0%" y1="0%" x2="100%" y2="100%">
      <stop offset="0%" style="stop-color:#f3f4f6;stop-opacity:0.5" />
      <stop offset="100%" style="stop-color:#e5e7eb;stop-opacity:0.8" />
    </linearGradient>
        <pattern id="pattern" x="0" y="0" width="40" height="40" patternUnits="userSpaceOnUse">
      <circle cx="20" cy="20" r="1" fill="#3b82f6" opacity="0.2" />
    </pattern>
  </defs>
    <rect width="800" height="600" fill="url(#bgGrad)" />
  <rect width="800" height="600" fill="url(#pattern)" />
    <g transform="translate(400, 300)">    <circle r="120" fill="#3b82f6" opacity="0.1" />
    <circle r="90" fill="#2563eb" opacity="0.15" />
    <circle r="60" fill="#1d4ed8" opacity="0.2" />
        <g transform="translate(-150, -100)">
      <rect width="80" height="80" rx="20" fill="#3b82f6" opacity="0.2" />
      <rect width="40" height="40" rx="10" fill="#2563eb" opacity="0.3" transform="translate(20, 20)" />
    </g>
    
    <g transform="translate(150, 100)">
      <circle r="40" fill="#3b82f6" opacity="0.2" />
      <circle r="20" fill="#2563eb" opacity="0.3" transform="translate(-10, -10)" />
    </g>
        <path d="M-120,-120 L120,120" stroke="#3b82f6" stroke-width="2" opacity="0.2" fill="none" />
    <path d="M120,-120 L-120,120" stroke="#3b82f6" stroke-width="2" opacity="0.2" fill="none" />
        <g>
      <circle cx="-180" cy="-150" r="5" fill="#3b82f6" opacity="0.5" />
      <circle cx="180" cy="150" r="5" fill="#3b82f6" opacity="0.5" />
      <circle cx="-180" cy="150" r="5" fill="#3b82f6" opacity="0.5" />
      <circle cx="180" cy="-150" r="5" fill="#3b82f6" opacity="0.5" />
    </g>
  </g>
    <path d="M0,400 Q200,350 400,400 T800,400 L800,600 L0,600 Z" fill="#3b82f6" opacity="0.1" />
  <path d="M0,450 Q200,400 400,450 T800,450 L800,600 L0,600 Z" fill="#2563eb" opacity="0.1" />
</svg>